<?xml version="1.0" encoding="UTF-8"?>
<!DOCTYPE svg PUBLIC "-//W3C//DTD SVG 1.1//EN" "http://www.w3.org/Graphics/SVG/1.1/DTD/svg11.dtd">
<!-- Creator: CorelDRAW 2019 (64-Bit) -->
<svg xmlns="http://www.w3.org/2000/svg" xml:space="preserve" width="58.8993mm" height="15.3554mm" version="1.1" style="shape-rendering:geometricPrecision; text-rendering:geometricPrecision; image-rendering:optimizeQuality; fill-rule:evenodd; clip-rule:evenodd"
viewBox="0 0 1813.21 472.71"
 xmlns:xlink="http://www.w3.org/1999/xlink">
 <defs>
  <style type="text/css">
   <![CDATA[
    .fil0 {fill:black}
    .fil1 {fill:black;fill-rule:nonzero}
   ]]>
  </style>
 </defs>
 <g id="Capa_x0020_1">
  <metadata id="CorelCorpID_0Corel-Layer"/>
  <path class="fil0" d="M332.17 472.71l-22.45 0 -309.72 0 0 -472.71 524.82 0 0 472.71 -192.65 0zm-57.24 -22.37l-252.56 0 0 -427.96 480.07 0 0 427.96 -227.51 0zm-17.2 -63.44c0,0 -25.29,-6.01 0,0z"/>
  <path class="fil0" d="M110.67 219.46l-10.01 7.31c0.48,2.53 1.02,4.37 2.01,6.88 0.58,1.46 0.7,1.91 1.41,3.08 1.43,2.38 0.65,1.54 2.15,2.23 2.64,5.57 13.62,15.71 22.84,15.37 5.22,3.45 13.79,2.43 20.28,2.36 -6.68,-13.29 -5.13,0.71 -7.92,-26.96 2.44,3.55 2.14,6.83 4.5,9.8 2.62,6.79 6.77,11.42 12.38,15.14 13.4,-1.27 27.72,-15.88 30.1,-28.3l0.09 -16.22 -27.36 -1.61c11.06,-6.81 0.27,-4.05 18.28,-9.3 0.28,-0.08 0.59,-0.17 0.85,-0.26l2.31 -1.03c-2.61,-4.13 -6.62,-9.23 -10.29,-12.86 -2.67,-2.78 -11.82,-9.45 -17.2,-11.76 -8.53,-3.66 -10.06,4.79 -16.31,10.98l0.4 -6.3 3.49 -11.1 -14.1 -3.25c-10.23,-2.21 -20.75,-1.51 -30.68,1.57 -0.74,6.27 0.31,8.36 1.94,13.72 -6.83,-2.5 -3.6,-3.6 -8.54,-7.25l-0.57 -3.85c-34.17,14.61 -19.83,51.74 -3.73,66.34 0.19,-2.39 -19.22,-44.61 11.69,-48.5 5.84,-0.48 11.54,-0.65 17.35,0.23 4.65,0.71 9.14,2.74 13.28,2.78 0.82,0.86 0.77,0.83 2.03,1.77 0.91,0.68 1.08,0.75 2.08,1.41 1.45,0.95 3.24,2.13 4.67,3.01 5.08,8.01 9.39,10.49 5.06,20.44 -0.95,-4.93 -2.41,-10.41 -6.58,-12.47 -0.8,-2.36 -1.14,-2.88 -3.65,-4.92 -2.46,-1.99 -3.36,-2.14 -6.72,-3.16 -4.41,-4.03 -14.09,-4.71 -20.68,-4.2 -3.86,10.03 -5.27,15.01 -6.14,26.46l14.03 -4.68c6.25,-0.04 7.25,-0.5 11.97,2.61 -2.5,0.44 -8.59,0.85 -11.18,1.99 -3.38,1.48 -1.67,0.54 -3.51,2.5zm-65.92 -174.71l207.81 0 0 137.38c-7.63,-7.9 -17.08,-16.88 -21.26,-14.44l-29.15 28.53c-0.82,-7.56 3.26,-13.56 4.99,-19.53l16.66 -16.09c-7.09,-8.98 -35.53,-13.36 -44.99,-15.31 -2.37,7.56 -3.6,8.06 -7.39,21.94l-1.51 -21.75 -37.62 13.1c14.88,3.71 32.16,9.14 43.3,19.95 2.81,2.73 1.59,3.62 4.81,3.92 15.34,26.48 11.8,7.41 14.32,50.09 7.31,4.2 9.14,9.33 14.62,10.31 2.32,3.93 5.74,4.87 10.45,7.7l4.33 3.18c-15.16,-0.74 -21.25,-5.61 -33.68,-12.53 -3.13,3.59 -4.64,6.66 -7.27,9.33 -9.85,10 -12.11,2.23 4.95,31.93l0.58 -16.56c2.51,12.16 9.8,27.26 19.23,28.18 2.02,1.76 1.45,1.69 6.49,2.87 2.51,0.59 5.08,1.05 7.19,1.79 12.33,4.36 12.56,15.31 18.59,34.07 -1.99,-2.13 -2.56,-3.4 -4.01,-5.49 -1.61,-2.3 -2.97,-3.55 -4.73,-5.29 -10.48,-10.33 -21.89,-9.12 -26.46,-13.4l-8.92 -11.34c0.17,15.12 14.78,57.96 19.89,62.46l13.69 31.7c5.38,9.7 13.84,15.06 22.9,17.21l0 19.31 -207.81 0 0 -383.22zm369.4 174.71l10.01 7.31c-0.48,2.53 -1.02,4.37 -2.01,6.88 -0.58,1.46 -0.7,1.91 -1.4,3.08 -1.44,2.38 -0.66,1.54 -2.15,2.23 -2.64,5.57 -13.62,15.71 -22.84,15.37 -5.22,3.45 -13.79,2.43 -20.28,2.36 6.69,-13.29 5.13,0.71 7.92,-26.96 -2.44,3.55 -2.14,6.83 -4.5,9.8 -2.62,6.79 -6.77,11.42 -12.38,15.14 -13.4,-1.27 -27.72,-15.88 -30.1,-28.3l-0.09 -16.22 27.36 -1.61c-11.06,-6.81 -0.26,-4.05 -18.28,-9.3 -0.28,-0.08 -0.59,-0.17 -0.85,-0.26l-2.31 -1.03c2.61,-4.13 6.62,-9.23 10.29,-12.86 2.67,-2.78 11.82,-9.45 17.2,-11.76 8.53,-3.66 10.06,4.79 16.31,10.98l-0.39 -6.3 -3.49 -11.1 14.1 -3.25c10.23,-2.21 20.75,-1.51 30.68,1.57 0.74,6.27 -0.31,8.36 -1.94,13.72 6.83,-2.5 3.6,-3.6 8.54,-7.25l0.57 -3.85c34.17,14.61 19.83,51.74 3.73,66.34 -0.2,-2.39 19.22,-44.61 -11.69,-48.5 -5.84,-0.48 -11.54,-0.65 -17.35,0.23 -4.65,0.71 -9.14,2.74 -13.28,2.78 -0.82,0.86 -0.77,0.83 -2.03,1.77 -0.91,0.68 -1.08,0.75 -2.08,1.41 -1.45,0.95 -3.24,2.13 -4.67,3.01 -5.08,8.01 -9.39,10.49 -5.06,20.44 0.95,-4.93 2.41,-10.41 6.58,-12.47 0.8,-2.36 1.14,-2.88 3.65,-4.92 2.47,-1.99 3.36,-2.14 6.72,-3.16 4.41,-4.03 14.09,-4.71 20.68,-4.2 3.85,10.03 5.27,15.01 6.14,26.46l-14.03 -4.68c-6.25,-0.04 -7.25,-0.5 -11.97,2.61 2.5,0.44 8.59,0.85 11.18,1.99 3.38,1.48 1.67,0.54 3.51,2.5zm65.92 -174.71l-207.81 0 0 138.42 17.7 -16.3 33.92 29.57 -0.84 -7.6c-6.99,-19.54 -7.77,-16.88 -20.76,-28.57 2.82,-2.8 5.84,-4.27 9.64,-5.97 3.35,-1.5 6.84,-2.92 10.3,-4.09 8.08,-2.74 15.67,-4.64 24.61,-4.71l6.12 19.93c3.39,-6.1 2.84,-9.78 2.75,-19.83l37.15 12.46c-25.06,8.05 -31.69,9.3 -49.46,27.73 -2.07,2.15 -2.45,3.29 -4.42,5.01 -2.14,5.83 -6.71,11.85 -8.46,18.66 -2.38,9.28 -0.43,14.35 0.6,23.01 -5.14,3.42 -14.34,13.54 -20.86,14.88 -0.2,0.23 -0.47,0.52 -0.62,0.66 -2.24,2.15 -6.08,4.74 -8.87,5.83l33.39 -12.62c4.02,4 15.22,14.53 15.98,18.86 1.81,10.35 -6.6,19.53 -12.49,22.1l-0.46 -16.44 -22.4 29.35c-0.25,0.19 -0.6,0.39 -0.79,0.49l-1.62 0.87c-0.27,0.11 -0.56,0.23 -0.85,0.33 -2.72,0.99 -5.9,0.93 -10.12,3.24 -3.19,1.75 -6.57,5.15 -8.67,7.93 -4.55,6.01 -7.96,16.47 -7.49,25.75 6.56,-9 9.68,-15.47 21.33,-19.69 11.42,-4.13 19.1,-5.62 22.97,-17.16l-9.16 38.75c-2.23,6.3 -11.51,28.97 -14.53,32.27 -2.47,7.34 -9.6,24.84 -15.2,31.09 -4.11,4.58 -10.78,8.08 -18.37,9.74l0 19.24 207.81 0 0 -383.22z"/>
  <g id="_2474395316240">
   <path class="fil1" d="M806.32 301.63l-12.57 -47.83 -94.56 0 -12.57 47.83 -81.4 0 80.81 -301.62 123.89 0 76.62 301.62 -80.2 0zm-61.05 -245.61l-23.35 100.4 -13.16 51.28 74.81 0 -13.76 -51.28 -23.34 -100.4 -1.19 0zm175.97 -56.02l159.2 0c25.15,6.03 46.59,17.16 64.35,33.39 17.76,16.23 26.63,36.13 26.63,59.68 0,38.49 -21.15,66.79 -63.44,84.89l60.46 123.66 -83.81 0 -50.88 -109.88 -31.72 0 0 109.88 -80.8 0 0 -301.62zm80.8 51.7l0 91.78 51.47 0c6.79,-1.15 14.27,-6.1 22.45,-14.86 8.19,-8.76 12.28,-19.03 12.28,-30.81 0,-11.78 -3.5,-22.12 -10.48,-31.02 -6.98,-8.9 -13.87,-13.93 -20.65,-15.08l-55.06 0zm212.49 249.92l0 -301.62 81.99 0 0 301.62 -81.99 0zm139.46 0l0 -301.62 214.87 0 0 51.7 -132.87 0 0 71.96 118.52 0 0 49.99 -118.52 0 0 77.99 135.27 0 0 49.99 -217.27 0zm295.67 -301.62l143.65 0 0 51.7 -114.91 0 -1.8 2.59 95.77 125.83c19.55,25.27 29.33,44.52 29.33,57.74 0,29.01 -13.37,50.26 -40.1,63.77l-158.62 0 0 -49.99 123.9 0 1.8 -2.59 -107.75 -139.18c-15.56,-20.11 -23.34,-36.48 -23.34,-49.12 0,-29.87 17.36,-50.13 52.07,-60.75z"/>
   <path class="fil1" d="M690.49 472.71l-6.05 -23.04 -45.54 0 -6.06 23.04 -39.2 0 38.92 -145.26 59.66 0 36.9 145.26 -38.63 0zm-29.41 -118.28l-11.24 48.35 -6.34 24.69 36.03 0 -6.62 -24.69 -11.25 -48.35 -0.58 0zm84.75 118.28l0 -145.26 82.15 0c9.41,2.5 17.78,6.85 25.08,13.07 7.3,6.22 10.95,13.77 10.95,22.62 0,15.64 -7.11,26.56 -21.32,32.79l0 0.83c17.68,7.06 26.52,18.12 26.52,33.2 0,17.29 -12.2,31.55 -36.61,42.75l-86.76 0zm39.2 -85.29l28.54 0c8.46,-3.73 12.68,-9.4 12.68,-17.02 0,-7.6 -3.95,-13.62 -11.82,-18.05l-29.41 0 0 35.06zm0 61.22l29.68 0c3.47,-1.8 6.59,-4.64 9.38,-8.51 2.78,-3.87 4.17,-7.75 4.17,-11.62 0,-3.87 -1.15,-7.41 -3.46,-10.59 -2.3,-3.18 -5.19,-5.53 -8.64,-7.05l-31.13 0 0 37.77zm105.21 24.07l0 -145.26 103.48 0 0 24.91 -64 0 0 34.65 57.08 0 0 24.08 -57.08 0 0 37.56 65.15 0 0 24.07 -104.64 0zm126.83 -145.26l76.68 0c12.1,2.91 22.44,8.27 30.98,16.08 8.55,7.82 12.82,17.4 12.82,28.74 0,18.54 -10.19,32.16 -30.56,40.88l29.13 59.56 -40.37 0 -24.49 -52.92 -15.28 0 0 52.92 -38.91 0 0 -145.26zm38.91 24.91l0 44.2 24.78 0c3.28,-0.56 6.88,-2.94 10.81,-7.16 3.94,-4.22 5.92,-9.16 5.92,-14.84 0,-5.67 -1.69,-10.65 -5.04,-14.94 -3.38,-4.29 -6.68,-6.71 -9.95,-7.26l-26.53 0zm132.02 0l-43.53 0 0 -24.91 126.26 0 0 24.91 -43.54 0 0 120.35 -39.2 0 0 -120.35zm149.32 96.29l24.21 0c4.24,-3.32 7.26,-6.68 9.08,-10.07 1.83,-3.39 2.74,-8.4 2.74,-15.04l0 -96.08 39.48 0 0 85.71c0,7.06 -0.24,12.56 -0.71,16.5 -0.48,3.94 -1.69,8.75 -3.62,14.42 -3.26,10.1 -12.3,19.65 -27.08,28.64l-64 0c-14.8,-8.72 -23.84,-18.26 -27.1,-28.64 -2.88,-8.44 -4.33,-18.75 -4.33,-30.92l0 -85.71 39.5 0 0 96.08c0,6.64 0.91,11.65 2.73,15.04 1.83,3.39 4.85,6.74 9.08,10.07zm101.75 -121.19l76.68 0c12.1,2.91 22.43,8.27 30.98,16.08 8.56,7.82 12.83,17.4 12.83,28.74 0,18.54 -10.19,32.16 -30.56,40.88l29.13 59.56 -40.37 0 -24.49 -52.92 -15.28 0 0 52.92 -38.91 0 0 -145.26zm38.91 24.91l0 44.2 24.78 0c3.28,-0.56 6.88,-2.94 10.81,-7.16 3.94,-4.22 5.92,-9.16 5.92,-14.84 0,-5.67 -1.69,-10.65 -5.04,-14.94 -3.38,-4.29 -6.68,-6.71 -9.95,-7.26l-26.53 0zm188.23 120.35l-6.05 -23.04 -45.55 0 -6.06 23.04 -39.2 0 38.92 -145.26 59.66 0 36.9 145.26 -38.62 0zm-29.41 -118.28l-11.24 48.35 -6.34 24.69 36.04 0 -6.63 -24.69 -11.25 -48.35 -0.57 0zm103.19 -26.98l69.18 0 0 24.91 -55.34 0 -0.87 1.24 46.12 60.59c9.43,12.17 14.14,21.44 14.14,27.81 0,13.97 -6.44,24.21 -19.31,30.71l-76.39 0 0 -24.07 59.66 0 0.87 -1.25 -51.88 -67.02c-7.5,-9.68 -11.24,-17.57 -11.24,-23.66 0,-14.39 8.36,-24.15 25.08,-29.26z"/>
  </g>
 </g>
</svg>
