<?xml version="1.0" encoding="UTF-8"?>
<!DOCTYPE svg PUBLIC "-//W3C//DTD SVG 1.1//EN" "http://www.w3.org/Graphics/SVG/1.1/DTD/svg11.dtd">
<!-- Creator: CorelDRAW 2019 (64-Bit) -->
<svg xmlns="http://www.w3.org/2000/svg" xml:space="preserve" width="140.622mm" height="166.594mm" version="1.1" style="shape-rendering:geometricPrecision; text-rendering:geometricPrecision; image-rendering:optimizeQuality; fill-rule:evenodd; clip-rule:evenodd"
viewBox="0 0 4355.97 5160.49"
 xmlns:xlink="http://www.w3.org/1999/xlink">
 <defs>
  <style type="text/css">
   <![CDATA[
    .fil0 {fill:#FEFEFE}
    .fil1 {fill:#FEFEFE;fill-rule:nonzero}
   ]]>
  </style>
 </defs>
 <g id="Capa_x0020_1">
  <metadata id="CorelCorpID_0Corel-Layer"/>
  <g id="_2232947884400">
   <path class="fil0" d="M766.34 4052.69c0,-26.9 -3.88,-73.78 32.78,-73.78l3393.55 0c42.38,0 58.14,131.15 -24.59,131.15l-3344.37 0c-38.27,0 -57.38,-19.12 -57.38,-57.37zm904.76 -1157.28l0 0zm-383.31 -1381.14c0,-259.91 362.8,-334.48 464.37,-99.31 28.13,65.14 28.24,127.25 1.82,194.36 -20.52,52.1 -68.93,100.72 -119.25,124.12 -122.2,56.84 -267.55,3.24 -322.7,-115.64 -10.13,-21.83 -24.25,-72.02 -24.25,-103.53zm-97.34 -18.25l0 36.51c0,165.8 156.67,322.47 322.46,322.47l36.51 0c165.8,0 322.47,-156.67 322.47,-322.47l0 -36.51c0,-165.8 -156.67,-322.46 -322.47,-322.46l-36.51 0c-166.32,0 -322.46,156.14 -322.46,322.46zm340.72 943.07c-365.56,0 -681.62,-213.01 -841.74,-545.48 -108.76,-225.85 -107.73,-527.7 -1.98,-754.57 282.94,-607.02 1049.13,-724.72 1493.23,-280.35 85.45,85.5 134.47,159.16 190.23,272.18 37.23,75.47 63.86,180.82 76.57,270.23 15.09,106.17 7.84,219.76 -16.94,318.91 -107.28,429.11 -473.14,719.07 -899.36,719.07zm-1022.16 -961.32c0,179.61 20.43,322.13 95.27,470.56 29.17,57.85 51.74,104.76 88.92,154.45 119.62,159.87 223.32,247.19 399.87,336.33 288.04,145.43 677.22,126.72 951.83,-39.96 79.8,-48.43 71.66,-44.54 143.42,-99.95 59.3,-45.79 132.41,-132.51 178.17,-192.97 101.97,-134.72 186.83,-365.55 186.83,-555.45 0,-178.25 -21.11,-323.47 -95.27,-470.56 -61.26,-121.49 -113.2,-197.28 -204.38,-288.45 -89.97,-89.97 -166.26,-142.67 -284.42,-202.33 -310.62,-156.84 -750.35,-121.05 -1026.61,86.86 -253.11,190.5 -433.64,470.19 -433.64,801.47zm882.22 -1344.63c69.91,5.82 147.55,99.78 182.5,176.47 27,59.25 63.72,36.12 183.19,60.19 77.7,15.66 113.81,34.22 121.23,-96.83 1.29,-22.83 -6.13,-96.46 -12.34,-109.41 41.62,11.11 93.04,115.73 103.51,152.03 16.06,55.63 10.3,86.04 19.29,108.48 10.66,26.61 103.46,66.28 156.79,98.75 61.01,37.15 91.06,62.12 135,-60.28 12.4,-34.54 20.29,-64.45 29.57,-104.29 0.95,1.09 2.27,1.47 2.61,3.48l17.58 37.18c18.53,48.21 28.76,116.8 20.1,169.99 -13.17,80.9 -47.4,72.81 52.54,171.11 84.07,82.69 80.47,175.61 203.54,30.21 9.75,-11.52 19.95,-25.27 28.64,-38.28 12.55,-18.79 12.01,-27.42 27.88,-39.05 0,104.86 -5.64,173.5 -60.89,249.41 -48.12,66.1 -9.96,58.8 41.81,219.92 25.83,80.41 59.73,75.86 150.46,21.03 28.41,-17.17 50.47,-35.53 75.48,-52.29 -1.77,79.71 -75.11,167.69 -140.02,212.87 -68.67,47.79 -23.93,84.32 -30.31,194.81 -1.52,26.37 -8.35,28.79 -5.83,54.04 10,99.83 175.16,30.51 224.83,18.94 -11.94,44.74 -85.34,101.09 -125.72,123.73 -101.45,56.86 -111.68,-4.02 -141.98,107.47 -20.12,74.02 -69.8,153.18 -49.07,188.84 18.73,32.22 143.35,48.46 201.18,48.46 -13.1,17.88 -53.51,39.79 -78.11,49.66 -39.06,15.67 -51.26,17.92 -103.42,24.63 -60.97,7.84 -79.11,-11.53 -110.79,4.52 -13.43,6.81 -80.67,101.64 -116.97,138.58 -23.41,23.81 -46.97,53.22 -26.95,84.67 15.54,24.44 127.1,90.47 162.46,93.41l0 12.17c-68.62,5.71 -105.05,31.5 -218.38,-6.75 -107.49,-36.29 -41.82,-50.21 -246.76,70.95 -27.2,16.09 -59.98,34.09 -40.21,75.56 27.98,58.7 97.71,112.88 115.94,140.11 -132.16,0 -185.77,-64.23 -247.76,-117.39 -39.1,-33.52 -94.93,7.5 -197.49,18.94 -101.49,11.32 -98.57,53.08 -43.26,179.31 8.52,19.44 15.18,26.17 20.02,46.91 -61.89,-5.15 -152.47,-101.53 -183.28,-175.7 -17.2,-41.43 -24.69,-38.91 -76.47,-45.22 -179.71,-21.88 -218.41,-73.61 -227.17,81.08 -1.29,22.84 6.13,96.46 12.34,109.41 -27.2,-7.26 -46.89,-43.07 -62.14,-65.63 -18.27,-27.01 -31.55,-52.36 -41.37,-86.4 -16.06,-55.64 -10.3,-86.04 -19.29,-108.48 -10.56,-26.36 -104.21,-66.92 -156.8,-98.74 -66.32,-40.13 -86.3,-61.66 -135.15,60.1 -13.18,32.86 -20.34,65.56 -29.4,104.46l-5.14 -7.04c-6.12,-10.51 -1.66,-1.72 -6.35,-11.89 -26.33,-57.01 -39.38,-126.67 -28.8,-191.72 19.13,-117.56 34.76,-64.12 -20.56,-136.17 -25.74,-33.51 -44.21,-43.95 -89.39,-105.31 -66.77,-90.69 -133.59,25.36 -183.75,93.8 -13.6,18.57 1.97,10.04 -18.91,17.6 0,-228.01 76.74,-235.54 84.21,-281.37 3.49,-21.44 -50.09,-130.85 -64.56,-182.44 -9.59,-34.22 -18.9,-66.1 -67.36,-59.35 -18.03,2.51 -66.53,28.53 -83.67,38.89 -28.41,17.17 -50.47,35.53 -75.49,52.29 1.78,-79.71 75.11,-167.69 140.02,-212.87 68.71,-47.81 24.04,-88.13 30.31,-194.81 0.92,-15.68 18.61,-70.56 -14.29,-95.17 -44.53,-33.29 -168.76,13.81 -204.71,22.19 11.94,-44.71 85.3,-101.07 125.72,-123.73 101.75,-57.02 113.67,3.58 141.95,-107.51 19.25,-75.58 70.69,-151.68 49.1,-188.8 -18.73,-32.22 -143.35,-48.46 -201.17,-48.46 12.96,-17.69 53.62,-40 78.05,-49.72 33.77,-13.44 57.52,-19.82 104.11,-24.08 131.85,-12.04 89.15,29.76 168.07,-74.89 51.94,-68.88 115.99,-106.24 86.02,-153.38 -15.53,-24.43 -127.11,-90.47 -162.46,-93.41l0 -12.17c17.53,-1.45 32.35,-6.75 51,-9.84 68.61,-11.39 152.04,4.39 210.63,34.48 17.07,8.77 26.58,14.44 47.66,5.43 20.53,-8.78 54.06,-35.93 78.15,-50.28 54.44,-32.44 145.93,-60.76 117.91,-119.55 -27.98,-58.71 -97.72,-112.89 -115.94,-140.11 72.22,0 141.34,28.63 183.51,59.86 29.54,21.88 38.92,35.81 64.25,57.52 39.1,33.53 94.94,-7.5 197.49,-18.94 101.49,-11.32 98.58,-53.08 43.27,-179.3 -8.52,-19.44 -15.19,-26.17 -20.02,-46.91zm0 0l0 0zm383.31 139.94c-63.84,-30.63 -97.18,16.38 -132.06,-50.46 -101.9,-195.26 -427.69,-283.02 -427.69,-168.57 0,40.79 108.61,122.82 115.6,206.87 -11.79,5.65 -97.54,22.83 -115.6,24.34 -52.16,-77.9 -202.04,-127.77 -298.13,-127.77 -46.14,0 -131.52,9.32 -165.76,35.02 -37.74,28.32 -20.97,71.93 15.5,90.91 25.16,13.09 35.67,18.2 57.91,33.35 35.41,24.13 72.35,52.37 92.36,90.18 -123.63,65.41 -54.87,60.87 -182.35,30.23 -130.11,-31.28 -281.95,3.91 -378.63,90.24 -32.68,29.18 -16.45,82.13 27.03,91 84.75,17.28 115.85,21.38 193.22,62.32 -16.14,24.1 -59.79,64.54 -66.93,91.26 -66.55,0 -97.05,-1.3 -150.97,13.31 -118.23,32.03 -274.93,154.49 -274.93,230.06 0,81.59 103.64,36.51 146.02,36.51 38.05,0 79.53,-2.32 115.6,6.08 -2.08,24.92 -14.22,50.57 -21.91,75.44 -23.34,75.42 -57.23,20.51 -183.19,127.11 -147.7,124.99 -202.56,397.35 -43.19,291.44 46.05,-30.61 110.84,-57.15 169.19,-62.01l0 121.69c-177.77,94.06 -240.67,468.49 -127.77,468.49 38.27,0 69.23,-53.92 95.82,-80.62 22.73,-22.83 65.65,-63.75 98.88,-71.49l33.66 82.63c14.15,34.88 -7.62,47.68 -23.59,79.54 -98.43,196.42 -6.5,434.09 44.69,434.09 80.68,0 49.1,-51.91 120.42,-165.53 11.08,-17.66 22.58,-41.74 43.85,-47.42 5.71,21.38 19.59,28.9 32.98,46.12 12.95,16.65 24.01,28.33 40.03,39.06 -43.61,90.89 -4.82,251.3 36.68,322.29 23.11,39.55 88.24,134.03 139.76,134.03 71.54,0 33.09,-77.45 55.11,-182.18 5.19,-24.7 12.55,-44.26 17.91,-67.27 29.34,6.83 43.87,21.49 69.04,34.39 41.75,21.41 33.34,7.44 42.19,61.25 17.52,106.59 81.54,194.86 160.64,259.18 32.52,26.44 175.13,127.56 186.87,26.09 2.77,-23.9 -45,-107.97 -45,-228.8 65.56,31.45 101.32,-14.32 131.89,50.63 85.51,181.63 427.87,288.78 427.87,168.4 0,-40.79 -108.61,-122.81 -115.6,-206.87 11.79,-5.66 97.54,-22.83 115.6,-24.34 52.16,77.9 202.04,127.77 298.13,127.77 48.4,0 245.47,-21.98 175.18,-108.08 -26.06,-31.91 -129.73,-55.48 -175.18,-141.37 123.62,-65.41 54.87,-60.88 182.34,-30.23 173.68,41.75 395.67,-58.9 395.67,-127.96 0,-27.81 -16.6,-47.67 -44.07,-53.28 -84.75,-17.28 -115.85,-21.39 -193.22,-62.32 16.14,-24.11 59.79,-64.54 66.93,-91.27 66.55,0 97.04,1.3 150.97,-13.31 118.23,-32.03 274.93,-154.49 274.93,-230.07 0,-81.59 -103.64,-36.51 -146.02,-36.51l-115.6 -6.08c2.08,-24.92 14.22,-50.57 21.91,-75.43 23.33,-75.39 57.15,-20.52 183.19,-127.11 147.11,-124.42 202.76,-397.49 43.19,-291.44 -46.05,30.6 -110.84,57.15 -169.2,62.01l0 -121.69c177.77,-94.07 240.67,-468.5 127.77,-468.5 -38.27,0 -69.23,53.92 -95.82,80.62 -22.73,22.83 -65.65,63.75 -98.88,71.49l-33.66 -82.63c-8.15,-20.09 -10.92,-17.83 -0.99,-36.5 3.61,-6.8 6.14,-8.47 12.17,-18.86 4.39,-7.56 7.05,-13.52 10.37,-20.13 48.07,-95.67 63.73,-229.37 24.36,-334.79 -21.5,-57.58 -29.33,-103.35 -91.35,-103.35 -21.23,0 -34.13,25.66 -40.56,44.62 -15.03,44.32 -30.76,81.46 -55.53,120.91 -11.08,17.65 -22.58,41.74 -43.85,47.42 -6.91,-25.87 -51.1,-70.51 -73.01,-85.18 35.52,-74.04 15.55,-205.84 -16.14,-275.91 -55.05,-121.71 -173.17,-245.78 -205.4,-146 -10.46,32.37 5.12,34.75 0.22,72.33l-28.14 142.71c-29.34,-6.83 -43.87,-21.49 -69.04,-34.39 -41.75,-21.41 -33.34,-7.44 -42.19,-61.24 -17.52,-106.58 -81.54,-194.87 -160.64,-259.18 -32.52,-26.44 -175.13,-127.56 -186.87,-26.09 -2.98,25.77 12.07,44.18 19.91,65.27 17.28,46.44 25.09,100.56 25.09,163.53zm1425.96 1234.8l80.26 -80.26c33.6,-33.6 100.41,-81.49 100.41,-120.9 0,-20 -19.01,-40.98 -49.18,-40.98 -13.67,0 -83.46,66.72 -154.65,138.25 17.1,31.14 23.87,66.68 23.15,103.9zm-85.13 -397.9l519.91 0 0 778.71 -561.94 0c22.12,25.57 35.73,56.65 41.16,90.17l520.78 0c47.89,0 90.17,-42.27 90.17,-90.17l0 -795.11c0,-24.37 -41.43,-73.77 -90.17,-73.77l-517.59 0c2.24,29.37 1.17,59.85 -2.32,90.17zm-1325.04 0l412.84 0c-18.94,-31.93 -39.05,-61.22 -62.54,-90.17l-784.13 0c-30.44,0 -66.54,23.13 -79.14,43.81 -7.22,11.84 -12.29,31.7 -15.4,52.77 73.55,-50.54 160.53,-80.83 250.93,-80.83l36.51 0c86.24,0 169.48,27.76 240.92,74.42zm427.63 778.71l-386.65 0c-51.59,41.8 -111.35,73.22 -175.17,90.17l504.78 0c20.8,-28.59 39.88,-58.7 57.04,-90.17zm-946.7 29.43c1.84,7.54 3.87,13.27 6.1,16.93 12.6,20.68 48.7,43.81 79.14,43.81l49.66 0c-47.82,-12.7 -93.36,-33.5 -134.9,-60.74zm1817.59 200.09l530.01 0c56.93,0 106.57,34.73 106.57,90.16l0 1450.86 139.35 0 0 -2778.77 -795.89 0c-15.76,-19.87 -35.77,-36.83 -60.79,-49.81 -25.91,-13.44 -54.48,-20.22 -83.65,-20.22 -9.15,0 -18,0.65 -26.57,1.89 10.36,-85.6 2.69,-173.72 -26.07,-251.53l1156.9 0c89.97,0 155.74,51.87 155.74,139.35l0 3188.63c174.33,0 188,311.49 -24.59,311.49l-3327.98 0c-212.59,0 -198.91,-311.49 -24.59,-311.49l0 -898.02c48.98,-1.37 94.67,-18.87 128.66,-55.51 0.24,-0.26 0.48,-0.52 0.72,-0.78 33.82,48.85 75.33,92.75 122.15,130.82 20.37,16.56 43.42,33.19 68.15,48.04l0 545.93 139.35 0 0 -494.33c30.51,3.37 61,0.64 90.17,-10.63l0 504.97 983.63 0 0 -104.78 -0.07 0 0 -581.62c36.51,-15.56 69.27,-36.88 93.29,-65.37l0 581.12c0.93,20.58 0.67,43 0,65.88 -1.04,35.5 -3.05,72.13 -3.05,104.78l131.15 0 0 -104.78 -3.59 0 0 -832.66c30.81,-7.16 62.51,-16.61 93.29,-28.48l0 729.53c0.31,2.07 0.48,4.35 0.48,6.88l0 229.51 983.63 0 0 -1450.86 -614.08 0c27.45,-28.09 50.84,-58.42 67.67,-90.16zm-1093.7 -1237.75l-868.17 0 0 373.98c-46.77,71.52 -74.57,154.98 -74.57,241.58l0 36.51c0,86.33 27.81,169.66 74.57,241.15l0 413.44c-133.04,-82.05 -241.47,-204.32 -313.26,-353.38 -2.2,-4.57 -4.33,-9.19 -6.42,-13.84l0 -611.06c1.7,-3.85 3.42,-7.69 5.19,-11.48 126.87,-272.19 381.09,-452.82 682.77,-467.84 180.94,-9.01 356.59,44.84 499.88,150.95zm-728.82 1374.26l0 -46.35c0,-46.65 45.33,-90.16 90.17,-90.16l675.3 0c-40.63,34.46 -84.7,64.7 -131.65,90.16l-543.65 0 0 73.05c-30.8,-7.09 -60.89,-16.01 -90.17,-26.7z"/>
   <path class="fil1" d="M1192.51 4662.72c-30.11,-30.93 -60.54,-53.84 -91.31,-68.89 -30.93,-14.89 -63.33,-22.42 -97.2,-22.42 -58.74,0 -106.85,20.29 -144.16,60.87 -37.47,40.58 -56.12,92.78 -56.12,156.27 0,63.65 18.49,115.2 55.63,154.63 36.98,39.44 85.25,59.24 144.81,59.24 35.18,0 70.2,-7.36 105.21,-22.09 35.02,-14.73 69.87,-36.82 104.73,-66.27l-10.64 184.57c-29.78,20.13 -62.18,35.51 -97.52,45.98 -35.34,10.63 -72,15.87 -110.12,15.87 -40.91,0 -80.02,-6.38 -117.65,-19.15 -37.47,-12.76 -72.16,-31.74 -103.74,-56.62 -44.84,-35.18 -79.03,-78.05 -102.92,-128.78 -23.73,-50.56 -35.67,-105.87 -35.67,-165.6 0,-51.54 8.83,-99.81 26.35,-144.81 17.67,-45 43.2,-84.92 76.74,-119.45 33.87,-34.52 72.98,-60.87 117.49,-79.36 44.34,-18.33 91.14,-27.49 140.39,-27.49 39.11,0 76.25,5.4 111.76,16.36 35.51,10.8 69.38,27.32 101.62,49.42l-17.67 177.7zm257.06 127.63c0,60.38 17.67,111.11 53.02,151.85 35.34,40.75 78.87,61.2 130.58,61.2 52.03,0 95.72,-20.29 130.9,-60.87 35.18,-40.74 52.69,-91.47 52.69,-152.18 0,-61.03 -17.51,-112.09 -52.69,-152.83 -35.18,-40.75 -78.87,-61.2 -130.9,-61.2 -51.71,0 -95.23,20.45 -130.58,61.2 -35.34,40.74 -53.02,91.8 -53.02,152.83zm-170.83 0c0,-51.54 8.83,-99.65 26.67,-144.48 17.67,-45 43.85,-85.09 78.38,-120.6 32.56,-33.87 70.52,-59.89 113.72,-77.89 43.04,-18.16 88.36,-27.16 135.65,-27.16 47.29,0 92.62,9.16 135.98,27.33 43.36,18.16 81.81,44.51 115.36,78.7 33.87,34.2 59.56,73.63 76.91,118.63 17.51,44.84 26.18,93.43 26.18,145.47 0,43.53 -6.05,84.44 -18.16,122.73 -12.27,38.29 -30.27,73.31 -54.33,105.05 -33.87,45 -75.43,80.02 -124.85,104.89 -49.42,25.04 -101.78,37.47 -157.08,37.47 -46.96,0 -91.96,-9.16 -135,-27.33 -43.04,-18.16 -81.16,-44.51 -114.38,-78.7 -34.53,-35.34 -60.71,-75.43 -78.38,-120.1 -17.84,-44.51 -26.67,-92.62 -26.67,-144zm1012.87 -220.9l-27.32 0 0 192.43 35.02 0c41.89,0 73.8,-8.51 95.89,-25.36 22.09,-16.85 33.05,-41.23 33.05,-72.81 0,-33.22 -10.63,-57.11 -32.07,-72 -21.44,-14.89 -56.29,-22.25 -104.56,-22.25zm-188.34 568.45l0 -695.1 178.68 0c57.27,0 101.61,3.76 133.19,11.29 31.58,7.53 59.4,19.96 83.78,37.63 25.86,18.49 45.98,41.4 60.22,68.73 14.23,27.32 21.27,56.12 21.27,86.4 0,43.85 -11.13,82.14 -33.38,115.03 -22.25,32.89 -54.33,58.58 -96.22,77.23l212.06 298.79 -189.48 0 -185.56 -272.94 -23.56 0 0 272.94 -161.01 0zm766.94 0l0 -549.8 -220.9 0 0 -145.3 606.74 0 0 145.3 -219.92 0 0 549.8 -165.92 0zm545.22 -220.9l182.61 0 -90.16 -217.63 -92.45 217.63zm-260.17 220.9l354.59 -716.7 10.47 0 346.73 716.7 -173.61 0 -44.01 -101.12 -282.1 0 -45 101.12 -167.07 0zm763.83 0l0 -695.1 165.92 0 0 545.87 270.97 0 0 149.23 -436.89 0z"/>
  </g>
 </g>
</svg>
