<?xml version="1.0" encoding="UTF-8"?>
<!DOCTYPE svg PUBLIC "-//W3C//DTD SVG 1.1//EN" "http://www.w3.org/Graphics/SVG/1.1/DTD/svg11.dtd">
<!-- Creator: CorelDRAW 2019 (64-Bit) -->
<svg xmlns="http://www.w3.org/2000/svg" xml:space="preserve" width="27.4504mm" height="35.8501mm" version="1.1" style="shape-rendering:geometricPrecision; text-rendering:geometricPrecision; image-rendering:optimizeQuality; fill-rule:evenodd; clip-rule:evenodd"
viewBox="0 0 2730.85 3566.48"
 xmlns:xlink="http://www.w3.org/1999/xlink">
 <defs>
  <style type="text/css">
   <![CDATA[
    .fil1 {fill:#FEFEFE}
    .fil0 {fill:#FFF212}
    .fil2 {fill:#FFF212;fill-rule:nonzero}
    .fil3 {fill:#FFF212;fill-rule:nonzero}
   ]]>
  </style>
 </defs>
 <g id="Capa_x0020_1">
  <metadata id="CorelCorpID_0Corel-Layer"/>
  <g id="_2474023114160">
   <path class="fil0" d="M1728.44 2459.74l-116.84 0 -1611.6 0 0 -2459.74 2730.85 0 0 2459.74 -1002.41 0zm-297.84 -116.43l-1314.17 0 0 -2226.9 2498.01 0 0 2226.9 -1183.84 0zm-89.49 -330.14c0,0 -131.59,-31.29 0,0z"/>
   <path class="fil1" d="M575.84 1141.94l-52.08 38.01c2.53,13.17 5.31,22.74 10.47,35.81 2.99,7.6 3.63,9.93 7.31,16.01 7.46,12.38 3.4,8 11.17,11.63 13.73,28.96 70.85,81.77 118.84,79.98 27.18,17.95 71.73,12.65 105.53,12.28 -34.78,-69.17 -26.7,3.7 -41.2,-140.26 12.69,18.46 11.13,35.56 23.4,50.99 13.65,35.35 35.21,59.39 64.43,78.76 69.73,-6.58 144.25,-82.64 156.63,-147.27l0.48 -84.42 -142.37 -8.36c57.54,-35.45 1.39,-21.06 95.12,-48.39 1.44,-0.43 3.06,-0.88 4.42,-1.34l12 -5.34c-13.58,-21.51 -34.44,-48.04 -53.55,-66.89 -13.89,-14.48 -61.48,-49.16 -89.5,-61.2 -44.39,-19.06 -52.37,24.93 -84.88,57.12l2.06 -32.79 18.17 -57.76 -73.35 -16.91c-53.24,-11.52 -107.99,-7.88 -159.66,8.17 -3.82,32.61 1.61,43.48 10.1,71.4 -35.54,-13 -18.7,-18.71 -44.42,-37.73l-2.98 -20.02c-177.77,76.04 -103.16,269.23 -19.44,345.17 1.02,-12.43 -100.01,-232.1 60.83,-252.38 30.38,-2.53 60.04,-3.4 90.29,1.19 24.22,3.68 47.56,14.25 69.12,14.47 4.27,4.47 4.02,4.31 10.55,9.2 4.73,3.54 5.6,3.93 10.8,7.34 7.54,4.93 16.87,11.11 24.3,15.7 26.42,41.69 48.89,54.57 26.31,106.36 -4.9,-25.67 -12.52,-54.17 -34.22,-64.89 -4.16,-12.28 -5.93,-15.01 -19.01,-25.58 -12.82,-10.37 -17.51,-11.15 -35,-16.45 -22.91,-20.96 -73.33,-24.52 -107.58,-21.84 -20.07,52.18 -27.43,78.11 -31.93,137.69l73.03 -24.36c32.5,-0.19 37.74,-2.59 62.28,13.57 -12.98,2.29 -44.67,4.41 -58.18,10.34 -17.6,7.72 -8.66,2.81 -18.28,13zm-343 -909.11l1081.34 0 0 714.85c-39.73,-41.09 -88.87,-87.83 -110.66,-75.12l-151.68 148.42c-4.27,-39.32 16.94,-70.53 25.97,-101.6l86.69 -83.71c-36.89,-46.73 -184.87,-69.54 -234.09,-79.66 -12.36,39.34 -18.72,41.93 -38.44,114.18l-7.88 -113.19 -195.76 68.14c77.41,19.32 167.33,47.55 225.31,103.81 14.62,14.2 8.27,18.83 25.04,20.38 79.85,137.8 61.4,38.58 74.53,260.65 38.02,21.83 47.59,48.57 76.07,53.64 12.07,20.47 29.86,25.35 54.37,40.07l22.55 16.52c-78.87,-3.82 -110.59,-29.2 -175.27,-65.17 -16.3,18.65 -24.14,34.64 -37.83,48.53 -51.28,52.05 -63,11.62 25.74,166.13l3 -86.18c13.03,63.29 51.01,141.83 100.09,146.66 10.51,9.18 7.53,8.79 33.75,14.92 13.07,3.06 26.44,5.47 37.43,9.35 64.17,22.68 65.38,79.67 96.76,177.29 -10.36,-11.07 -13.31,-17.71 -20.9,-28.54 -8.38,-11.99 -15.43,-18.46 -24.59,-27.5 -54.52,-53.73 -113.9,-47.45 -137.69,-69.76l-46.41 -59.01c0.87,78.71 76.91,301.59 103.52,325.02l71.22 164.93c27.98,50.45 72,78.34 119.17,89.56l0 100.46 -1081.34 0 0 -1994.07zm1922.18 909.11l52.08 38.01c-2.53,13.17 -5.32,22.74 -10.48,35.81 -2.99,7.6 -3.63,9.93 -7.3,16.01 -7.47,12.38 -3.41,8 -11.17,11.63 -13.73,28.96 -70.86,81.77 -118.84,79.98 -27.19,17.95 -71.74,12.65 -105.54,12.28 34.79,-69.17 26.7,3.7 41.21,-140.26 -12.7,18.46 -11.13,35.56 -23.41,50.99 -13.64,35.35 -35.21,59.39 -64.42,78.76 -69.74,-6.58 -144.25,-82.64 -156.64,-147.27l-0.47 -84.42 142.36 -8.36c-57.54,-35.45 -1.38,-21.06 -95.12,-48.39 -1.43,-0.43 -3.06,-0.88 -4.4,-1.34l-12.01 -5.34c13.58,-21.51 34.43,-48.04 53.55,-66.89 13.9,-14.48 61.47,-49.16 89.49,-61.2 44.39,-19.06 52.37,24.93 84.88,57.12l-2.04 -32.79 -18.19 -57.76 73.35 -16.91c53.25,-11.52 107.99,-7.88 159.67,8.17 3.82,32.61 -1.62,43.48 -10.11,71.4 35.54,-13 18.71,-18.71 44.44,-37.73l2.97 -20.02c177.77,76.04 103.16,269.23 19.43,345.17 -1.02,-12.43 100.01,-232.1 -60.83,-252.38 -30.38,-2.53 -60.04,-3.4 -90.29,1.19 -24.21,3.68 -47.56,14.25 -69.12,14.47 -4.27,4.47 -4.02,4.31 -10.55,9.2 -4.73,3.54 -5.6,3.93 -10.8,7.34 -7.54,4.93 -16.87,11.11 -24.3,15.7 -26.42,41.69 -48.89,54.57 -26.31,106.36 4.91,-25.67 12.53,-54.17 34.22,-64.89 4.16,-12.28 5.93,-15.01 19.01,-25.58 12.83,-10.37 17.51,-11.15 35,-16.45 22.91,-20.96 73.33,-24.52 107.58,-21.84 20.08,52.18 27.43,78.11 31.93,137.69l-73.03 -24.36c-32.5,-0.19 -37.74,-2.59 -62.28,13.57 12.98,2.29 44.67,4.41 58.19,10.34 17.59,7.72 8.66,2.81 18.28,13zm342.99 -909.11l-1081.33 0 0 720.27 92.09 -84.82 176.53 153.87 -4.4 -39.52c-36.34,-101.68 -40.43,-87.82 -108.03,-148.66 14.68,-14.54 30.36,-22.21 50.17,-31.08 17.42,-7.8 35.61,-15.17 53.58,-21.27 42.04,-14.25 81.55,-24.13 128.05,-24.52l31.85 103.68c17.64,-31.73 14.74,-50.89 14.28,-103.16l193.29 64.81c-130.39,41.89 -164.89,48.41 -257.35,144.32 -10.78,11.17 -12.75,17.13 -23,26.08 -11.14,30.33 -34.92,61.65 -44.03,97.12 -12.4,48.27 -2.27,74.68 3.11,119.75 -26.74,17.8 -74.61,70.44 -108.53,77.45 -1.03,1.19 -2.47,2.71 -3.24,3.46 -11.66,11.16 -31.64,24.63 -46.15,30.33l173.75 -65.67c20.9,20.79 79.2,75.62 83.13,98.12 9.42,53.87 -34.32,101.6 -64.96,115.01l-2.4 -85.56 -116.58 152.74c-1.27,0.97 -3.09,2.02 -4.12,2.55l-8.42 4.52c-1.4,0.59 -2.91,1.19 -4.41,1.74 -14.17,5.17 -30.67,4.81 -52.67,16.86 -16.61,9.1 -34.19,26.78 -45.14,41.25 -23.64,31.26 -41.42,85.69 -38.98,134.02 34.12,-46.86 50.36,-80.5 111.01,-102.45 59.4,-21.49 99.38,-29.25 119.51,-89.28l-47.68 201.61c-11.63,32.77 -59.9,150.72 -75.6,167.94 -12.85,38.18 -49.95,129.24 -79.12,161.77 -21.37,23.84 -56.12,42.03 -95.56,50.69l0 100.1 1081.33 0 0 -1994.07z"/>
   <g>
    <path class="fil2" d="M521.19 3202.84l-26.72 -101.67 -201.03 0 -26.71 101.67 -173.04 0 171.76 -641.17 263.37 0 162.86 641.17 -170.49 0zm-129.77 -522.1l-49.63 213.42 -27.99 108.99 159.04 0 -29.26 -108.99 -49.62 -213.42 -2.54 0zm374.04 -119.07l338.45 0c53.44,12.82 99.03,36.48 136.77,70.98 37.75,34.5 56.63,76.79 56.63,126.86 0,81.82 -44.97,141.97 -134.87,180.44l128.5 262.88 -178.12 0 -108.15 -233.57 -67.44 0 0 233.57 -171.77 0 0 -641.17zm171.77 109.91l0 195.11 109.42 0c14.43,-2.45 30.33,-12.98 47.71,-31.61 17.39,-18.62 26.09,-40.45 26.09,-65.49 0,-25.04 -7.43,-47.02 -22.27,-65.95 -14.84,-18.93 -29.48,-29.62 -43.89,-32.06l-117.06 0zm451.67 531.26l0 -641.17 174.3 0 0 641.17 -174.3 0zm296.45 0l0 -641.17 456.77 0 0 109.91 -282.45 0 0 152.97 251.92 0 0 106.26 -251.92 0 0 165.79 287.55 0 0 106.25 -461.86 0zm628.53 -641.17l305.35 0 0 109.91 -244.28 0 -3.82 5.5 203.57 267.46c41.56,53.73 62.34,94.65 62.34,122.73 0,61.68 -28.41,106.86 -85.24,135.57l-337.17 0 0 -106.25 263.36 0 3.83 -5.5 -229.02 -295.85c-33.08,-42.75 -49.62,-77.55 -49.62,-104.42 0,-63.51 36.9,-106.56 110.69,-129.15z"/>
    <path class="fil3" d="M274.98 3566.48l-12.87 -48.97 -96.83 0 -12.86 48.97 -83.34 0 82.73 -308.81 126.84 0 78.43 308.81 -82.1 0zm-62.51 -251.45l-23.9 102.79 -13.48 52.5 76.59 0 -14.1 -52.5 -23.89 -102.79 -1.23 0zm180.16 251.45l0 -308.81 174.64 0c20.01,5.29 37.78,14.56 53.3,27.8 15.53,13.23 23.3,29.26 23.3,48.08 0,33.24 -15.12,56.47 -45.35,69.71l0 1.76c37.58,15 56.38,38.53 56.38,70.58 0,36.76 -25.94,67.05 -77.83,90.88l-184.44 0zm83.33 -181.31l60.66 0c17.98,-7.95 26.96,-20.01 26.96,-36.18 0,-16.18 -8.38,-28.97 -25.12,-38.38l-62.51 0 0 74.56zm0 130.13l63.12 0c7.35,-3.82 13.99,-9.85 19.92,-18.09 5.93,-8.24 8.88,-16.47 8.88,-24.7 0,-8.24 -2.45,-15.74 -7.35,-22.5 -4.9,-6.76 -11.02,-11.76 -18.39,-15l-66.18 0 0 80.29zm223.67 51.17l0 -308.81 219.99 0 0 52.94 -136.03 0 0 73.68 121.33 0 0 51.17 -121.33 0 0 79.85 138.47 0 0 51.17 -222.42 0zm269.62 -308.81l162.99 0c25.73,6.18 47.68,17.58 65.87,34.19 18.19,16.61 27.27,36.98 27.27,61.1 0,39.41 -21.66,68.37 -64.95,86.9l61.9 126.61 -85.8 0 -52.08 -112.5 -32.47 0 0 112.5 -82.72 0 0 -308.81zm82.72 52.94l0 93.97 52.71 0c6.93,-1.17 14.58,-6.25 22.96,-15.22 8.38,-8.97 12.56,-19.49 12.56,-31.55 0,-12.06 -3.56,-22.64 -10.72,-31.76 -7.14,-9.12 -14.2,-14.27 -21.13,-15.45l-56.38 0zm280.64 0l-92.53 0 0 -52.94 268.4 0 0 52.94 -92.53 0 0 255.87 -83.34 0 0 -255.87zm317.43 204.7l51.47 0c8.98,-7.05 15.42,-14.19 19.3,-21.4 3.89,-7.2 5.82,-17.87 5.82,-31.98l0 -204.25 83.95 0 0 182.19c0,15 -0.52,26.69 -1.54,35.08 -1.01,8.38 -3.56,18.59 -7.65,30.66 -6.95,21.47 -26.14,41.75 -57.6,60.87l-136.04 0c-31.45,-18.52 -50.65,-38.82 -57.59,-60.87 -6.13,-17.95 -9.19,-39.85 -9.19,-65.74l0 -182.19 83.94 0 0 204.25c0,14.12 1.94,24.78 5.82,31.98 3.89,7.21 10.33,14.35 19.31,21.4zm216.32 -257.63l162.99 0c25.73,6.18 47.68,17.58 65.87,34.19 18.19,16.61 27.27,36.98 27.27,61.1 0,39.41 -21.66,68.37 -64.95,86.9l61.9 126.61 -85.8 0 -52.08 -112.5 -32.47 0 0 112.5 -82.72 0 0 -308.81zm82.72 52.94l0 93.97 52.7 0c6.94,-1.17 14.59,-6.25 22.97,-15.22 8.38,-8.97 12.56,-19.49 12.56,-31.55 0,-12.06 -3.57,-22.64 -10.72,-31.76 -7.14,-9.12 -14.2,-14.27 -21.13,-15.45l-56.38 0zm400.14 255.87l-12.86 -48.97 -96.83 0 -12.86 48.97 -83.35 0 82.74 -308.81 126.84 0 78.43 308.81 -82.11 0zm-62.5 -251.45l-23.9 102.79 -13.49 52.5 76.6 0 -14.1 -52.5 -23.9 -102.79 -1.22 0zm219.38 -57.35l147.06 0 0 52.94 -117.65 0 -1.84 2.66 98.04 128.81c20.03,25.89 30.03,45.58 30.03,59.11 0,29.71 -13.68,51.47 -41.06,65.29l-162.39 0 0 -51.17 126.84 0 1.84 -2.65 -110.3 -142.49c-15.94,-20.58 -23.9,-37.36 -23.9,-50.29 0,-30.59 17.77,-51.32 53.31,-62.21z"/>
   </g>
  </g>
 </g>
</svg>
